<svg width="35" height="40" viewBox="0 0 35 40" fill="none" xmlns="http://www.w3.org/2000/svg">
<path fill-rule="evenodd" clip-rule="evenodd" d="M17.7117 5.92204C18.4254 6.08675 19.0493 6.24547 19.7082 6.52099L22.5032 13.309L20.7064 13.1094L17.7117 5.92204ZM13.6189 5.12345L16.8133 13.0096L15.0164 13.309L11.9219 5.3231C12.4709 5.21329 13.0149 5.12345 13.6189 5.12345ZM8.42801 6.92029L11.822 14.6068L10.2248 15.2057L6.93064 7.41941L8.42801 6.92029ZM13.3553 2.05884C10.4475 2.00394 7.64838 2.77458 5.17872 4.31587C3.09339 5.69245 1.99632 7.45335 1.99632 9.32506C1.99632 10.1506 2.21594 10.9761 2.60026 11.6919L7.48367 22.976C8.0327 21.4896 8.96506 20.2239 10.1729 19.2326C12.3132 17.5815 14.8377 16.5903 17.526 16.2599C18.4045 16.15 19.227 16.0951 20.1055 16.0951C23.2879 16.0402 26.4164 16.9207 29.1046 18.5718L24.4947 8.44361C23.233 5.63654 20.8182 3.54423 17.9093 2.66378C16.4279 2.27845 14.8916 2.05784 13.3543 2.05784L13.3553 2.05884ZM17.0868 18.0218C12.2034 18.9022 8.69055 21.7652 8.69055 25.0674C8.69055 27.1038 10.0072 28.8108 11.6533 29.9667C14.123 31.6178 17.0309 32.4434 20.0496 32.3885C21.0368 32.3885 22.0251 32.2787 23.0123 32.113L17.0858 18.0208L17.0868 18.0218ZM31.3537 23.8016C28.9938 18.7924 23.232 17.5266 18.7878 17.857L27.0193 37.2329V37.2878C31.7939 34.6455 33.7125 28.7559 31.3537 23.8016ZM13.3553 0.351844C15.0563 0.351844 16.7024 0.572455 18.2936 1.01268C21.7506 2.00394 24.6045 4.42568 26.031 7.72787L33.0547 23.3614C35.2498 28.3156 33.7135 34.1504 29.5429 37.5634C28.4997 38.3889 27.3477 39.0498 26.1408 39.5449L23.6712 33.7101C22.4643 33.9308 21.2564 34.0406 20.0496 34.0406C14.5073 34.0406 9.5141 31.6188 7.75818 27.9852L7.53857 27.4352L1.11887 12.3527C0.624737 11.4174 0.35022 10.3712 0.35022 9.32506C0.35022 6.90332 1.72181 4.59138 4.24636 2.88439C6.98954 1.17839 10.118 0.29694 13.3553 0.351844Z" fill="#0BAC7C"/>
<path d="M25.9533 40L23.4577 34.1024C22.3247 34.293 21.1797 34.3899 20.0497 34.3899C14.3168 34.3899 9.25072 31.8773 7.4429 28.1379L7.43292 28.1149L7.21331 27.5649L0.801589 12.5024C0.277512 11.5031 0 10.4051 0 9.32498C0 6.75051 1.43847 4.36071 4.04987 2.59482L4.06085 2.58783C6.86791 0.841906 10.0833 -0.0525196 13.3575 0.00238383C15.0815 0.00238383 16.7725 0.228985 18.3866 0.6752C21.9983 1.71038 24.9002 4.22994 26.3516 7.58903L33.3733 23.2175C35.6063 28.2577 34.122 34.2671 29.7636 37.8328C28.7155 38.6633 27.5425 39.3461 26.2728 39.8672L25.9533 39.998V40ZM23.884 33.3168L26.3257 39.0876C27.4128 38.6104 28.421 38.0065 29.3254 37.2908C33.4362 33.9267 34.8397 28.2557 32.7344 23.504L25.7118 7.87254C24.3422 4.70211 21.604 2.32629 18.197 1.35001C16.6467 0.920768 15.0166 0.703151 13.3545 0.703151L13.0251 0.701154C9.9984 0.710138 7.03562 1.56364 4.43519 3.17979C2.02544 4.80893 0.69877 6.99109 0.69877 9.32498C0.69877 10.2963 0.950328 11.2875 1.42649 12.1899L1.43847 12.2159L7.85917 27.2983L8.07679 27.8444C9.7748 31.3422 14.5843 33.6911 20.0487 33.6911C21.2286 33.6911 22.4265 33.5823 23.6075 33.3667L23.883 33.3168H23.884ZM26.6691 37.8817V37.3047L18.2748 17.5455L18.761 17.5096C21.3065 17.3199 23.871 17.6733 25.9803 18.5028C28.6376 19.548 30.5522 21.2819 31.6693 23.6538C34.091 28.7398 32.1225 34.863 27.1872 37.5942L26.6691 37.8817ZM19.302 18.1764L27.2041 36.7767C31.5555 34.1323 33.2435 28.5821 31.0384 23.9522C29.9992 21.7451 28.2114 20.131 25.7257 19.1527C23.847 18.413 21.584 18.0716 19.304 18.1764H19.302ZM19.7602 32.7418C16.7595 32.7418 13.8936 31.8863 11.4588 30.2581C10.2899 29.4376 8.34032 27.6787 8.34032 25.0683C8.34032 21.6393 11.911 18.6007 17.023 17.6783L17.2986 17.6284L23.5046 32.3854L23.0694 32.4583C21.9424 32.6469 20.9541 32.7378 20.0487 32.7378C19.9529 32.7398 19.8561 32.7408 19.7592 32.7408L19.7602 32.7418ZM16.8733 18.419C12.2464 19.3344 9.03909 22.0436 9.03909 25.0693C9.03909 27.3632 10.803 28.9445 11.8531 29.6822C14.2389 31.2773 17.074 32.0939 20.0417 32.041C20.7964 32.041 21.608 31.9751 22.5164 31.8394L16.8723 18.419H16.8733ZM7.50879 23.9163L2.28398 11.8435C1.86671 11.0609 1.6461 10.1895 1.6461 9.32498C1.6461 7.32849 2.83202 5.44581 4.98623 4.02431C7.5038 2.45307 10.3957 1.65448 13.3585 1.70938C14.8648 1.70938 16.4251 1.91701 17.9973 2.32629L18.0103 2.33029C21.04 3.24767 23.5196 5.42384 24.8123 8.30078L29.8944 19.4691L28.9201 18.8702C26.2498 17.2301 23.2022 16.3905 20.1096 16.4445C19.2571 16.4445 18.4515 16.4964 17.5681 16.6072C14.9068 16.9336 12.4251 17.9368 10.3887 19.5061C9.19482 20.4863 8.32735 21.6952 7.81026 23.0967L7.50779 23.9153L7.50879 23.9163ZM13.069 2.40516C10.3388 2.40516 7.68048 3.16582 5.36256 4.61127C3.39103 5.91298 2.34388 7.54411 2.34388 9.32398C2.34388 10.0797 2.53853 10.8403 2.90589 11.5261L2.91886 11.5521L7.47784 22.0865C8.04983 20.8886 8.87838 19.8395 9.94849 18.962L9.95648 18.955C12.0927 17.3069 14.6941 16.2548 17.4802 15.9124C18.3926 15.7976 19.2262 15.7447 20.1016 15.7447C22.9626 15.6968 25.7876 16.3796 28.3351 17.7312L24.1745 8.58728C22.9636 5.89501 20.6457 3.8596 17.8127 2.99911C16.2993 2.6058 14.798 2.40615 13.3525 2.40615H13.3455C13.2527 2.40416 13.1598 2.40316 13.067 2.40316L13.069 2.40516ZM10.0323 15.6508L6.46063 7.2077L8.61784 6.48897L12.2894 14.8043L10.0323 15.6508ZM7.39798 7.63196L10.4147 14.7614L11.352 14.41L8.23551 7.35245L7.39798 7.63196ZM23.0494 13.7222L20.462 13.4347L17.1259 5.42883L17.7887 5.58256C18.4695 5.74029 19.1383 5.90599 19.8411 6.19948L19.9748 6.25538L23.0494 13.7222ZM20.9481 12.7859L21.9544 12.8977L19.4398 6.79044C19.0565 6.63871 18.6781 6.52491 18.2988 6.42508L20.9491 12.7859H20.9481ZM14.792 13.7013L11.4449 5.06248L11.8521 4.98062C12.3872 4.87381 12.9712 4.77399 13.618 4.77399H13.8536L17.3006 13.282L14.793 13.7003L14.792 13.7013ZM12.3982 5.58955L15.2382 12.9187L16.3243 12.738L13.3834 5.47875C13.051 5.49172 12.7336 5.53165 12.3972 5.58955H12.3982Z" fill="#0BAC7C"/>
</svg>
