<svg width="147" height="40" viewBox="0 0 147 40" fill="none" xmlns="http://www.w3.org/2000/svg">
<g clip-path="url(#clip0_44_2)">
<path fill-rule="evenodd" clip-rule="evenodd" d="M17.7117 5.92204C18.4254 6.08675 19.0493 6.24547 19.7082 6.52099L22.5032 13.309L20.7064 13.1094L17.7117 5.92204ZM13.6189 5.12345L16.8133 13.0096L15.0164 13.309L11.9219 5.3231C12.4709 5.21329 13.0149 5.12345 13.6189 5.12345ZM8.42801 6.92029L11.822 14.6068L10.2248 15.2057L6.93064 7.41941L8.42801 6.92029ZM13.3553 2.05884C10.4475 2.00394 7.64838 2.77458 5.17872 4.31587C3.09339 5.69245 1.99632 7.45335 1.99632 9.32506C1.99632 10.1506 2.21594 10.9761 2.60026 11.6919L7.48367 22.976C8.0327 21.4896 8.96506 20.2239 10.1729 19.2326C12.3132 17.5815 14.8377 16.5903 17.526 16.2599C18.4045 16.15 19.227 16.0951 20.1055 16.0951C23.2879 16.0402 26.4164 16.9207 29.1046 18.5718L24.4947 8.44361C23.233 5.63654 20.8182 3.54423 17.9093 2.66378C16.4279 2.27845 14.8916 2.05784 13.3543 2.05784L13.3553 2.05884ZM17.0868 18.0218C12.2034 18.9022 8.69055 21.7652 8.69055 25.0674C8.69055 27.1038 10.0072 28.8108 11.6533 29.9667C14.123 31.6178 17.0309 32.4434 20.0496 32.3885C21.0368 32.3885 22.0251 32.2787 23.0123 32.113L17.0858 18.0208L17.0868 18.0218ZM31.3537 23.8016C28.9938 18.7924 23.232 17.5266 18.7878 17.857L27.0193 37.2329V37.2878C31.7939 34.6455 33.7125 28.7559 31.3537 23.8016ZM13.3553 0.351844C15.0563 0.351844 16.7024 0.572455 18.2936 1.01268C21.7506 2.00394 24.6045 4.42568 26.031 7.72787L33.0547 23.3614C35.2498 28.3156 33.7135 34.1504 29.5429 37.5634C28.4997 38.3889 27.3477 39.0498 26.1408 39.5449L23.6712 33.7101C22.4643 33.9308 21.2564 34.0406 20.0496 34.0406C14.5073 34.0406 9.5141 31.6188 7.75818 27.9852L7.53857 27.4352L1.11887 12.3527C0.624737 11.4174 0.35022 10.3712 0.35022 9.32506C0.35022 6.90332 1.72181 4.59138 4.24636 2.88439C6.98954 1.17839 10.118 0.29694 13.3553 0.351844Z" fill="#0BAC7C"/>
<path d="M25.9533 40L23.4577 34.1024C22.3247 34.293 21.1797 34.3899 20.0497 34.3899C14.3168 34.3899 9.25072 31.8773 7.4429 28.1379L7.43292 28.1149L7.21331 27.5649L0.801589 12.5024C0.277512 11.5031 0 10.4051 0 9.32498C0 6.75051 1.43847 4.36071 4.04987 2.59482L4.06085 2.58783C6.86791 0.841906 10.0833 -0.0525196 13.3575 0.00238383C15.0815 0.00238383 16.7725 0.228985 18.3866 0.6752C21.9983 1.71038 24.9002 4.22994 26.3516 7.58903L33.3733 23.2175C35.6063 28.2577 34.122 34.2671 29.7636 37.8328C28.7155 38.6633 27.5425 39.3461 26.2728 39.8672L25.9533 39.998V40ZM23.884 33.3168L26.3257 39.0876C27.4128 38.6104 28.421 38.0065 29.3254 37.2908C33.4362 33.9267 34.8397 28.2557 32.7344 23.504L25.7118 7.87254C24.3422 4.70211 21.604 2.32629 18.197 1.35001C16.6467 0.920768 15.0166 0.703151 13.3545 0.703151L13.0251 0.701154C9.9984 0.710138 7.03562 1.56364 4.43519 3.17979C2.02544 4.80893 0.69877 6.99109 0.69877 9.32498C0.69877 10.2963 0.950328 11.2875 1.42649 12.1899L1.43847 12.2159L7.85917 27.2983L8.07679 27.8444C9.7748 31.3422 14.5843 33.6911 20.0487 33.6911C21.2286 33.6911 22.4265 33.5823 23.6075 33.3667L23.883 33.3168H23.884ZM26.6691 37.8817V37.3047L18.2748 17.5455L18.761 17.5096C21.3065 17.3199 23.871 17.6733 25.9803 18.5028C28.6376 19.548 30.5522 21.2819 31.6693 23.6538C34.091 28.7398 32.1225 34.863 27.1872 37.5942L26.6691 37.8817ZM19.302 18.1764L27.2041 36.7767C31.5555 34.1323 33.2435 28.5821 31.0384 23.9522C29.9992 21.7451 28.2114 20.131 25.7257 19.1527C23.847 18.413 21.584 18.0716 19.304 18.1764H19.302ZM19.7602 32.7418C16.7595 32.7418 13.8936 31.8863 11.4588 30.2581C10.2899 29.4376 8.34032 27.6787 8.34032 25.0683C8.34032 21.6393 11.911 18.6007 17.023 17.6783L17.2986 17.6284L23.5046 32.3854L23.0694 32.4583C21.9424 32.6469 20.9541 32.7378 20.0487 32.7378C19.9529 32.7398 19.8561 32.7408 19.7592 32.7408L19.7602 32.7418ZM16.8733 18.419C12.2464 19.3344 9.03909 22.0436 9.03909 25.0693C9.03909 27.3632 10.803 28.9445 11.8531 29.6822C14.2389 31.2773 17.074 32.0939 20.0417 32.041C20.7964 32.041 21.608 31.9751 22.5164 31.8394L16.8723 18.419H16.8733ZM7.50879 23.9163L2.28398 11.8435C1.86671 11.0609 1.6461 10.1895 1.6461 9.32498C1.6461 7.32849 2.83202 5.44581 4.98623 4.02431C7.5038 2.45307 10.3957 1.65448 13.3585 1.70938C14.8648 1.70938 16.4251 1.91701 17.9973 2.32629L18.0103 2.33029C21.04 3.24767 23.5196 5.42384 24.8123 8.30078L29.8944 19.4691L28.9201 18.8702C26.2498 17.2301 23.2022 16.3905 20.1096 16.4445C19.2571 16.4445 18.4515 16.4964 17.5681 16.6072C14.9068 16.9336 12.4251 17.9368 10.3887 19.5061C9.19482 20.4863 8.32735 21.6952 7.81026 23.0967L7.50779 23.9153L7.50879 23.9163ZM13.069 2.40516C10.3388 2.40516 7.68048 3.16582 5.36256 4.61127C3.39103 5.91298 2.34388 7.54411 2.34388 9.32398C2.34388 10.0797 2.53853 10.8403 2.90589 11.5261L2.91886 11.5521L7.47784 22.0865C8.04983 20.8886 8.87838 19.8395 9.94849 18.962L9.95648 18.955C12.0927 17.3069 14.6941 16.2548 17.4802 15.9124C18.3926 15.7976 19.2262 15.7447 20.1016 15.7447C22.9626 15.6968 25.7876 16.3796 28.3351 17.7312L24.1745 8.58728C22.9636 5.89501 20.6457 3.8596 17.8127 2.99911C16.2993 2.6058 14.798 2.40615 13.3525 2.40615H13.3455C13.2527 2.40416 13.1598 2.40316 13.067 2.40316L13.069 2.40516ZM10.0323 15.6508L6.46063 7.2077L8.61784 6.48897L12.2894 14.8043L10.0323 15.6508ZM7.39798 7.63196L10.4147 14.7614L11.352 14.41L8.23551 7.35245L7.39798 7.63196ZM23.0494 13.7222L20.462 13.4347L17.1259 5.42883L17.7887 5.58256C18.4695 5.74029 19.1383 5.90599 19.8411 6.19948L19.9748 6.25538L23.0494 13.7222ZM20.9481 12.7859L21.9544 12.8977L19.4398 6.79044C19.0565 6.63871 18.6781 6.52491 18.2988 6.42508L20.9491 12.7859H20.9481ZM14.792 13.7013L11.4449 5.06248L11.8521 4.98062C12.3872 4.87381 12.9712 4.77399 13.618 4.77399H13.8536L17.3006 13.282L14.793 13.7003L14.792 13.7013ZM12.3982 5.58955L15.2382 12.9187L16.3243 12.738L13.3834 5.47875C13.051 5.49172 12.7336 5.53165 12.3972 5.58955H12.3982Z" fill="#0BAC7C"/>
<path d="M50.1714 18.3761H56.7668V24.6611C55.9483 25.4227 55.0319 26.0127 54.0167 26.43C53.0014 26.8472 51.8804 27.0569 50.6526 27.0569C49.0604 27.0569 47.6908 26.7055 46.5438 26.0017C45.3968 25.299 44.5314 24.3496 43.9474 23.1557C43.3634 21.9618 43.0709 20.6392 43.0709 19.1887C43.0709 17.6364 43.4023 16.2369 44.0682 14.9911C44.733 13.7463 45.6644 12.764 46.8623 12.0463C48.0601 11.3285 49.4337 10.9692 50.982 10.9692C52.3256 10.9692 53.5205 11.2517 54.5647 11.8147C55.6089 12.3787 56.4823 13.2182 57.1831 14.3313L55.0359 15.8915C54.5976 15.1299 54.0097 14.5439 53.272 14.1336C52.5343 13.7233 51.7127 13.5177 50.8063 13.5177C49.8999 13.5177 49.0025 13.7413 48.2428 14.1875C47.4832 14.6347 46.8842 15.2786 46.446 16.1211C46.0078 16.9636 45.7891 17.9559 45.7891 19.0989C45.7891 20.2419 46.0157 21.271 46.4679 22.0986C46.9202 22.9261 47.5381 23.549 48.3197 23.9663C49.1013 24.3836 49.9808 24.5932 50.96 24.5932C52.129 24.5932 53.1662 24.2638 54.0716 23.6039V20.8787H50.1714V18.3731V18.3761Z" fill="#22AC0B"/>
<path d="M66.3966 16.0352C67.2661 16.5404 67.9489 17.2331 68.446 18.1116C68.9422 18.991 69.1907 19.9723 69.1907 21.0564C69.1907 22.1405 68.9422 23.1218 68.446 24.0012C67.9489 24.8807 67.2661 25.5725 66.3966 26.0776C65.5272 26.5827 64.5519 26.8362 63.4718 26.8362C62.3917 26.8362 61.3974 26.5837 60.5359 26.0776C59.6735 25.5725 58.9947 24.8797 58.4985 24.0012C58.0014 23.1218 57.7538 22.1405 57.7538 21.0564C57.7538 19.9723 58.0024 18.991 58.4985 18.1116C58.9947 17.2321 59.6745 16.5404 60.5359 16.0352C61.3974 15.5301 62.3767 15.2766 63.4718 15.2766C64.5669 15.2766 65.5282 15.5291 66.3966 16.0352ZM61.8277 18.0677C61.3605 18.3612 60.9981 18.7674 60.7426 19.2875C60.487 19.8076 60.3593 20.3976 60.3593 21.0564C60.3593 21.7153 60.487 22.3272 60.7426 22.8473C60.9981 23.3673 61.3595 23.7706 61.8277 24.0561C62.2949 24.3416 62.8429 24.4844 63.4708 24.4844C64.0987 24.4844 64.6248 24.3416 65.0929 24.0561C65.5601 23.7706 65.9255 23.3673 66.189 22.8473C66.4515 22.3272 66.5833 21.7302 66.5833 21.0564C66.5833 20.3826 66.4515 19.8076 66.189 19.2875C65.9265 18.7674 65.5611 18.3612 65.0929 18.0677C64.6248 17.7752 64.0847 17.6284 63.4708 17.6284C62.8569 17.6284 62.2949 17.7752 61.8277 18.0677Z" fill="#22AC0B"/>
<path d="M77.1234 13.948C76.5394 13.6775 75.9405 13.5417 75.3266 13.5417C74.6108 13.5417 74.0298 13.7104 73.5846 14.0468C73.1384 14.3842 72.9158 14.8524 72.9158 15.4533C72.9158 15.9225 73.0546 16.3028 73.3321 16.5963C73.6096 16.8898 73.953 17.1234 74.3623 17.2991C74.7705 17.4748 75.3186 17.6584 76.0054 17.8481C77.0865 18.1556 77.9559 18.471 78.6128 18.7934C79.2696 19.1159 79.7927 19.5511 80.18 20.1011C80.5663 20.6502 80.761 21.3649 80.761 22.2434C80.761 23.2696 80.5234 24.144 80.0492 24.8698C79.5741 25.5955 78.9352 26.1405 78.1316 26.5069C77.328 26.8732 76.4366 27.0559 75.4583 27.0559C74.4212 27.0559 73.4019 26.8363 72.4017 26.3971C71.4005 25.9578 70.5569 25.291 69.8712 24.3976L71.7339 22.486C72.1861 23.1308 72.7601 23.621 73.4539 23.9584C74.1476 24.2958 74.8594 24.4635 75.5901 24.4635C76.3208 24.4635 76.9118 24.2918 77.365 23.9474C77.8172 23.603 78.0438 23.1458 78.0438 22.5738C78.0438 22.1635 77.912 21.8191 77.6495 21.5406C77.3869 21.2621 77.0535 21.0385 76.6522 20.8708C76.2499 20.7031 75.7139 20.5154 75.0411 20.3108C73.931 19.9883 73.0436 19.6549 72.3787 19.3105C71.7139 18.9661 71.1848 18.5159 70.7905 17.9589C70.3962 17.4019 70.1986 16.6842 70.1986 15.8047C70.1986 14.8085 70.4322 13.948 70.8993 13.2223C71.3665 12.4975 71.9984 11.9405 72.795 11.5522C73.5916 11.1639 74.4641 10.9702 75.4134 10.9702C76.3627 10.9702 77.2462 11.1609 78.1087 11.5412C78.9701 11.9225 79.7009 12.4786 80.2998 13.2113L78.5469 15.057C78.1815 14.5878 77.7064 14.2185 77.1224 13.947L77.1234 13.948Z" fill="#0BAC7C"/>
<path d="M82.8437 15.541V12.706H85.4512V15.541H88.7603V17.8919H85.4512V22.6605C85.4512 23.2464 85.6189 23.6977 85.9553 24.0121C86.2917 24.3275 86.7299 24.4843 87.2699 24.4843C87.8689 24.4843 88.4459 24.3016 89.0009 23.9352L89.7017 25.8469C88.7084 26.5057 87.6712 26.8361 86.5901 26.8361C85.509 26.8361 84.5777 26.5027 83.8839 25.8359C83.1901 25.1691 82.8427 24.2507 82.8427 23.0777V17.8919H80.5638V15.541H82.8437Z" fill="#0BAC7C"/>
<path d="M100.394 26.7044H97.8527V24.8807C97.4723 25.4956 97.0052 25.9757 96.4501 26.3201C95.8951 26.6645 95.2013 26.8362 94.3688 26.8362C93.1859 26.8362 92.2246 26.4808 91.4869 25.7701C90.7492 25.0593 90.3798 24.0152 90.3798 22.6386V15.5401H92.9872V22.1105C92.9872 22.8872 93.1739 23.4801 93.5462 23.8904C93.9186 24.3007 94.4337 24.5053 95.0915 24.5053C95.6176 24.5053 96.0848 24.3805 96.4941 24.132C96.9033 23.8834 97.2208 23.521 97.4474 23.0439C97.674 22.5677 97.7868 22.0147 97.7868 21.3848V15.5391H100.394V26.7024V26.7044Z" fill="#0BAC7C"/>
<path d="M110.824 26.7044V24.9465C110.474 25.5325 109.962 25.9947 109.29 26.3311C108.618 26.6685 107.852 26.8362 106.989 26.8362C105.893 26.8362 104.951 26.5796 104.162 26.0665C103.373 25.5534 102.77 24.8577 102.354 23.9792C101.938 23.0998 101.729 22.1335 101.729 21.0783C101.729 20.0232 101.941 19.0569 102.365 18.1774C102.788 17.298 103.395 16.5952 104.184 16.0681C104.973 15.5411 105.915 15.2765 107.011 15.2765C107.858 15.2765 108.603 15.4412 109.246 15.7707C109.889 16.1001 110.371 16.5433 110.693 17.1003V11.3205H113.3V26.7034H110.823L110.824 26.7044ZM109.159 24.078C109.641 23.7925 110.017 23.3863 110.287 22.8582C110.558 22.3311 110.693 21.7302 110.693 21.0564C110.693 20.3825 110.557 19.7856 110.287 19.2655C110.017 18.7454 109.641 18.3391 109.159 18.0457C108.677 17.7532 108.115 17.6064 107.472 17.6064C106.829 17.6064 106.252 17.7602 105.785 18.0676C105.318 18.3751 104.96 18.7894 104.711 19.3094C104.462 19.8295 104.339 20.4125 104.339 21.0564C104.339 21.7002 104.47 22.3311 104.733 22.8582C104.996 23.3853 105.365 23.7925 105.84 24.078C106.314 24.3635 106.859 24.5063 107.472 24.5063C108.085 24.5063 108.677 24.3635 109.159 24.078Z" fill="#0BAC7C"/>
<path d="M125.2 20.8159C125.2 19.043 124.765 17.6764 123.895 16.7171C123.026 15.7578 121.825 15.2776 120.29 15.2776C119.151 15.2776 118.154 15.5412 117.3 16.0682C116.445 16.5963 115.787 17.307 115.327 18.2005C114.867 19.0939 114.637 20.0901 114.637 21.1892C114.637 22.2883 114.867 23.2656 115.327 24.1231C115.787 24.9795 116.441 25.6464 117.289 26.1225C118.136 26.5987 119.114 26.8373 120.225 26.8373C121.189 26.8373 122.058 26.6536 122.833 26.2872C123.607 25.9209 124.3 25.3868 124.914 24.6831L123.534 23.1009C122.759 24.0831 121.73 24.5733 120.444 24.5733C119.422 24.5733 118.621 24.2658 118.044 23.6499C117.642 23.2216 117.381 22.6576 117.259 21.9579H125.2V20.8159ZM117.25 20.0243C117.358 19.3554 117.59 18.8104 117.947 18.3871C118.458 17.7792 119.195 17.4748 120.16 17.4748C120.977 17.4748 121.587 17.6944 121.989 18.1346C122.391 18.5738 122.598 19.2037 122.613 20.0243H117.25Z" fill="#0BAC7C"/>
<path d="M129.078 15.5412V17.2771C129.457 16.6472 129.939 16.1561 130.524 15.8047C131.108 15.4533 131.839 15.2776 132.715 15.2776C133.898 15.2776 134.851 15.633 135.575 16.3437C136.298 17.0545 136.66 18.0687 136.66 19.3874V26.7055H134.053V19.9584C134.053 19.2117 133.859 18.6327 133.472 18.2224C133.085 17.8122 132.555 17.6075 131.883 17.6075C131.372 17.6075 130.907 17.7283 130.491 17.9699C130.075 18.2115 129.746 18.5708 129.505 19.047C129.264 19.5231 129.143 20.0842 129.143 20.728V26.7055H126.536V15.5422H129.078V15.5412Z" fill="#0BAC7C"/>
<path d="M139.616 15.541V12.706H142.224V15.541H145.533V17.8919H142.224V22.6605C142.224 23.2464 142.391 23.6977 142.728 24.0121C143.064 24.3275 143.502 24.4843 144.042 24.4843C144.641 24.4843 145.218 24.3016 145.773 23.9352L146.474 25.8469C145.481 26.5057 144.444 26.8361 143.363 26.8361C142.282 26.8361 141.35 26.5027 140.656 25.8359C139.963 25.1691 139.615 24.2507 139.615 23.0777V17.8919H137.336V15.541H139.616Z" fill="#0BAC7C"/>
</g>
<defs>
<clipPath id="clip0_44_2">
<rect width="147" height="40" fill="white"/>
</clipPath>
</defs>
</svg>
